<!DOCTYPE svg PUBLIC "-//W3C//DTD SVG 20010904//EN" "http://www.w3.org/TR/2001/REC-SVG-20010904/DTD/svg10.dtd">
<svg version="1.0" xmlns="http://www.w3.org/2000/svg" width="23px" height="22px" viewBox="0 0 460 440" preserveAspectRatio="xMidYMid meet">
<g id="layer101" fill="#25aec9" stroke="none">
 <path d="M0 220 l0 -220 230 0 230 0 0 220 0 220 -230 0 -230 0 0 -220z"/>
 </g>
<g id="layer102" fill="#92d8e4" stroke="none">
 <path d="M0 220 l0 -220 230 0 230 0 0 220 0 220 -230 0 -230 0 0 -220z m327 175 c116 -58 147 -199 66 -296 l-25 -30 -63 101 c-35 56 -66 104 -69 108 -4 3 -24 -13 -44 -37 -59 -68 -70 -47 -17 29 25 36 49 66 53 67 4 2 33 -39 64 -90 88 -142 82 -137 103 -97 23 45 17 126 -14 169 -74 103 -246 94 -309 -17 -24 -43 -29 -109 -11 -145 17 -32 60 -77 91 -93 32 -17 121 -19 150 -3 13 7 23 8 30 1 14 -14 -20 -31 -74 -38 -190 -26 -308 190 -180 328 66 70 161 86 249 43z"/>
 </g>
<g id="layer103" fill="#fcfefe" stroke="none">
 <path d="M0 220 l0 -220 230 0 230 0 0 220 0 220 -230 0 -230 0 0 -220z m330 178 c65 -34 102 -86 108 -152 2 -29 -1 -70 -7 -89 -13 -38 -47 -87 -61 -87 -4 0 -36 46 -71 103 -34 56 -64 104 -66 106 -2 3 -11 -6 -20 -20 -25 -35 -60 -69 -73 -69 -20 0 -9 27 40 94 l49 68 60 -94 c92 -145 85 -138 106 -99 20 40 16 107 -9 145 -86 132 -283 105 -328 -45 -22 -76 26 -163 107 -195 43 -16 71 -16 148 2 21 5 27 3 27 -9 0 -23 -73 -40 -139 -34 -152 16 -231 186 -145 310 39 56 101 87 174 87 38 0 70 -7 100 -22z"/>
 </g>

</svg>