<!DOCTYPE svg PUBLIC "-//W3C//DTD SVG 20010904//EN" "http://www.w3.org/TR/2001/REC-SVG-20010904/DTD/svg10.dtd">
<svg version="1.0" xmlns="http://www.w3.org/2000/svg" width="23px" height="22px" viewBox="0 0 460 440" preserveAspectRatio="xMidYMid meet">
<g id="layer101" fill="#fe5f5c" stroke="none">
 <path d="M0 220 l0 -220 230 0 230 0 0 220 0 220 -230 0 -230 0 0 -220z"/>
 </g>
<g id="layer102" fill="#fea1a0" stroke="none">
 <path d="M0 220 l0 -220 230 0 230 0 0 220 0 220 -230 0 -230 0 0 -220z m289 190 c81 -23 151 -110 151 -187 0 -53 -45 -143 -71 -143 -4 0 -35 45 -69 100 -34 55 -65 100 -68 100 -4 0 -23 -19 -42 -42 -56 -65 -66 -42 -14 32 25 36 48 66 52 67 4 2 33 -39 64 -90 87 -141 82 -137 102 -99 22 43 21 119 -4 159 -50 83 -162 111 -250 63 -158 -88 -93 -320 90 -320 28 0 61 5 72 11 13 7 23 8 30 1 18 -18 -34 -36 -104 -36 -59 0 -73 4 -109 29 -53 38 -75 69 -90 125 -36 141 112 273 260 230z"/>
 </g>
<g id="layer103" fill="#ffd2d4" stroke="none">
 <path d="M0 220 l0 -220 230 0 230 0 0 220 0 220 -230 0 -230 0 0 -220z m352 164 c90 -62 114 -184 55 -273 -15 -23 -31 -41 -36 -41 -4 0 -37 47 -71 105 -35 58 -67 105 -71 105 -3 0 -19 -18 -34 -40 -16 -22 -36 -40 -46 -40 -11 0 -19 3 -19 6 0 3 22 37 49 76 l50 70 44 -68 c24 -38 54 -88 68 -111 29 -51 43 -54 58 -12 30 86 -8 173 -96 218 -27 14 -103 14 -140 0 -90 -34 -137 -142 -97 -222 46 -90 138 -128 231 -95 37 14 54 5 32 -17 -21 -21 -105 -29 -157 -16 -78 21 -151 110 -152 185 0 81 62 174 132 195 18 6 61 9 95 8 51 -2 71 -9 105 -33z"/>
 </g>
<g id="layer104" fill="#fffefe" stroke="none">
 <path d="M0 220 l0 -220 230 0 230 0 0 220 0 220 -230 0 -230 0 0 -220z m323 186 c39 -17 92 -71 106 -109 15 -39 14 -121 -3 -160 -15 -36 -50 -72 -63 -64 -5 3 -35 49 -68 101 -32 53 -62 96 -65 96 -4 0 -21 -18 -39 -40 -31 -38 -54 -50 -65 -32 -5 8 88 144 102 150 4 1 38 -48 76 -109 63 -100 71 -110 83 -93 50 68 8 185 -81 225 -54 24 -100 24 -153 -2 -106 -51 -129 -182 -46 -265 45 -45 102 -60 171 -44 39 8 57 9 65 1 17 -17 -53 -41 -118 -41 -218 0 -284 283 -90 384 38 20 144 21 188 2z"/>
 </g>

</svg>